<svg xmlns="http://www.w3.org/2000/svg" xmlns:xlink="http://www.w3.org/1999/xlink" xmlns:lucid="lucid" width="412.76" height="742.13"><g transform="translate(-549.8138978476103 -150.05304128969954)" lucid:page-tab-id="0_0"><path d="M0 0h1870.4v1323.2H0z" fill="#fff"/><path d="M930.93 170.05c6.43 0 11.65 5.22 11.65 11.65v93.2c0 6.44-5.22 11.65-11.65 11.65H638.16c-6.43 0-11.65-5.2-11.65-11.65v-93.2c0-6.43 5.23-11.65 11.66-11.65z" stroke="#000" stroke-width="2" fill="#5abaa7"/><use xlink:href="#a" transform="matrix(1,0,0,1,646.5098930414044,170.05304128969954) translate(0 22.4)"/><use xlink:href="#b" transform="matrix(1,0,0,1,646.5098930414044,170.05304128969954) translate(71.95 22.4)"/><use xlink:href="#c" transform="matrix(1,0,0,1,646.5098930414044,170.05304128969954) translate(99.9 22.4)"/><use xlink:href="#d" transform="matrix(1,0,0,1,646.5098930414044,170.05304128969954) translate(0 44)"/><use xlink:href="#e" transform="matrix(1,0,0,1,646.5098930414044,170.05304128969954) translate(48.95 44)"/><use xlink:href="#f" transform="matrix(1,0,0,1,646.5098930414044,170.05304128969954) translate(0 65.60000000000001)"/><use xlink:href="#g" transform="matrix(1,0,0,1,646.5098930414044,170.05304128969954) translate(98.95 65.60000000000001)"/><use xlink:href="#h" transform="matrix(1,0,0,1,646.5098930414044,170.05304128969954) translate(147.95 65.60000000000001)"/><use xlink:href="#i" transform="matrix(1,0,0,1,646.5098930414044,170.05304128969954) translate(0 87.20000000000002)"/><use xlink:href="#j" transform="matrix(1,0,0,1,646.5098930414044,170.05304128969954) translate(53.95 87.20000000000002)"/><use xlink:href="#k" transform="matrix(1,0,0,1,646.5098930414044,170.05304128969954) translate(108.22160493827161 87.20000000000002)"/><use xlink:href="#l" transform="matrix(1,0,0,1,646.5098930414044,170.05304128969954) translate(0 108.62222222222223)"/><use xlink:href="#m" transform="matrix(1,0,0,1,646.5098930414044,170.05304128969954) translate(145.92592592592592 108.62222222222223)"/><use xlink:href="#n" transform="matrix(1,0,0,1,646.5098930414044,170.05304128969954) translate(182.37037037037038 108.62222222222223)"/><path d="M930.93 316.46c6.43 0 11.65 5.22 11.65 11.65v93.2c0 6.44-5.22 11.66-11.65 11.66H638.16c-6.43 0-11.65-5.22-11.65-11.65v-93.2c0-6.42 5.23-11.64 11.66-11.64z" stroke="#000" stroke-width="2" fill="#5abaa7"/><use xlink:href="#a" transform="matrix(1,0,0,1,646.5098930414044,316.46081751035246) translate(0 23.331999999999994)"/><use xlink:href="#b" transform="matrix(1,0,0,1,646.5098930414044,316.46081751035246) translate(71.95 23.331999999999994)"/><use xlink:href="#o" transform="matrix(1,0,0,1,646.5098930414044,316.46081751035246) translate(99.9 23.331999999999994)"/><use xlink:href="#d" transform="matrix(1,0,0,1,646.5098930414044,316.46081751035246) translate(0 44.931999999999995)"/><use xlink:href="#p" transform="matrix(1,0,0,1,646.5098930414044,316.46081751035246) translate(48.95 44.931999999999995)"/><use xlink:href="#f" transform="matrix(1,0,0,1,646.5098930414044,316.46081751035246) translate(0 66.532)"/><use xlink:href="#g" transform="matrix(1,0,0,1,646.5098930414044,316.46081751035246) translate(98.95 66.532)"/><use xlink:href="#q" transform="matrix(1,0,0,1,646.5098930414044,316.46081751035246) translate(147.95 66.532)"/><use xlink:href="#i" transform="matrix(1,0,0,1,646.5098930414044,316.46081751035246) translate(0 88.132)"/><use xlink:href="#r" transform="matrix(1,0,0,1,646.5098930414044,316.46081751035246) translate(53.95 88.132)"/><use xlink:href="#s" transform="matrix(1,0,0,1,646.5098930414044,316.46081751035246) translate(147.74200000000002 88.132)"/><use xlink:href="#t" transform="matrix(1,0,0,1,646.5098930414044,316.46081751035246) translate(0 109.15599999999999)"/><path d="M593.1 335.28l1 3.3 1.03 2.98 1.07 2.7 1.1 2.47 1.1 2.22 1.1 2 1.1 1.8 1.08 1.64 1.07 1.47 1.06 1.34 1.06 1.23 1.04 1.1 1.02 1 1.02.92 1.02.84-1.28 1.53-1.05-.87-1.08-.97-1.08-1.07-1.1-1.16-1.1-1.28-1.1-1.42-1.13-1.55-1.14-1.7-1.14-1.88-1.14-2.08-1.13-2.3-1.14-2.52-1.1-2.8-1.07-3.07-1.03-3.36-.2-.76h2.07zm15.92-82.85l-1.1.9-1 .9-1.02 1-1.04 1.1-1.05 1.22-1.05 1.35-1.07 1.47-1.1 1.64-1.1 1.82-1.1 2-1.1 2.22-1.08 2.46-1.07 2.7-1.04 3-1 3.3-.93 3.6-.82 3.88-.7 4.18-.57 4.44-.08.98h-2l.1-1.2.56-4.5.72-4.27.85-3.97.94-3.67 1-3.37 1.08-3.1 1.1-2.78 1.13-2.53 1.14-2.3 1.14-2.08 1.14-1.88 1.13-1.7 1.13-1.55 1.1-1.42 1.1-1.28 1.1-1.16 1.1-1.07 1.07-.97 1.12-.92zM610.53 255.8l-3.07-8.73 15-.35z"/><path d="M610.04 257.44l-3.98-11.34 19.45-.45zm-1.18-9.4l2.16 6.14 8.38-6.4zM622.46 368.04l-15-.34 3.07-8.75z"/><path d="M625.5 369.12l-19.44-.45 3.98-11.35zm-16.64-2.4l10.54.25-8.38-6.4z"/><use xlink:href="#u" transform="matrix(1,0,0,1,562.0199190527951,296.58226537416516) translate(0.004999999999999005 14.4)"/><use xlink:href="#v" transform="matrix(1,0,0,1,569.3137193430293,313.4645490444094) translate(0.004999999999999005 14.4)"/><path d="M930.93 462.87c6.43 0 11.65 5.2 11.65 11.65v93.2c0 6.43-5.22 11.65-11.65 11.65H638.16c-6.43 0-11.65-5.22-11.65-11.65v-93.2c0-6.44 5.23-11.65 11.66-11.65z" stroke="#000" stroke-width="2" fill="#5abaa7"/><use xlink:href="#a" transform="matrix(1,0,0,1,646.5098930414044,462.8685937310054) translate(0 23.331999999999994)"/><use xlink:href="#b" transform="matrix(1,0,0,1,646.5098930414044,462.8685937310054) translate(71.95 23.331999999999994)"/><use xlink:href="#w" transform="matrix(1,0,0,1,646.5098930414044,462.8685937310054) translate(99.9 23.331999999999994)"/><use xlink:href="#x" transform="matrix(1,0,0,1,646.5098930414044,462.8685937310054) translate(0 44.931999999999995)"/><use xlink:href="#y" transform="matrix(1,0,0,1,646.5098930414044,462.8685937310054) translate(48.95 44.931999999999995)"/><use xlink:href="#f" transform="matrix(1,0,0,1,646.5098930414044,462.8685937310054) translate(0 66.532)"/><use xlink:href="#g" transform="matrix(1,0,0,1,646.5098930414044,462.8685937310054) translate(98.95 66.532)"/><use xlink:href="#z" transform="matrix(1,0,0,1,646.5098930414044,462.8685937310054) translate(147.95 66.532)"/><use xlink:href="#i" transform="matrix(1,0,0,1,646.5098930414044,462.8685937310054) translate(0 88.132)"/><use xlink:href="#A" transform="matrix(1,0,0,1,646.5098930414044,462.8685937310054) translate(53.95 88.132)"/><use xlink:href="#B" transform="matrix(1,0,0,1,646.5098930414044,462.8685937310054) translate(135.502 88.132)"/><use xlink:href="#s" transform="matrix(1,0,0,1,646.5098930414044,462.8685937310054) translate(198.81400000000002 88.132)"/><use xlink:href="#C" transform="matrix(1,0,0,1,646.5098930414044,462.8685937310054) translate(0 109.15599999999999)"/><path d="M591.75 468.62l.82 3.85.9 3.55 1 3.25 1.02 2.96 1.05 2.68 1.08 2.44 1.08 2.2 1.1 1.97 1.08 1.8 1.08 1.62 1.06 1.46 1.05 1.33 1.03 1.2 1.03 1.1 1 1 1 .9.92.74-1.27 1.55-.95-.8-1.06-.95-1.07-1.05-1.08-1.15-1.1-1.27-1.1-1.4-1.1-1.52-1.13-1.7-1.13-1.85-1.13-2.04-1.12-2.27-1.12-2.5-1.1-2.77-1.05-3.04-1-3.34-.93-3.63-.84-3.93-.18-1.08h2.03zm17.3-74.36l-.9.76-1 .9-1.02 1-1.02 1.08-1.03 1.2-1.05 1.33-1.06 1.46-1.07 1.6-1.1 1.8-1.08 1.97-1.1 2.2-1.07 2.42-1.06 2.67-1.04 2.96-.98 3.25-.9 3.55-.52 2.38h-2.04l.6-2.83.93-3.63 1-3.33 1.06-3.03 1.1-2.76 1.12-2.5 1.12-2.26 1.13-2.05 1.13-1.87 1.12-1.68 1.1-1.53 1.1-1.4 1.1-1.26 1.08-1.15 1.07-1.04 1.07-.96.94-.78zM622.46 508.4l-15-.4 3.1-8.74z"/><path d="M625.5 509.48l-19.44-.52 4.02-11.33zm-16.63-2.45l10.54.3-8.35-6.44zM610.57 397.65l-3.1-8.74 15-.4z"/><path d="M610.1 399.28l-4.04-11.33 19.45-.52zm-1.23-9.4l2.18 6.14 8.36-6.43z"/><g><use xlink:href="#u" transform="matrix(1,0,0,1,562.9511653715402,426.8139963343891) translate(0.004999999999999005 14.4)"/></g><g><use xlink:href="#v" transform="matrix(1,0,0,1,568.818577907196,446.31884015153105) translate(0.004999999999999005 14.4)"/></g><path d="M784.54 313.96v-24.9" stroke="#000" stroke-width="3" fill="none"/><path d="M786.04 315.46h-3v-1.54h3zM786.04 289.1h-3v-1.55h3z"/><path d="M784.54 460.37v-24.9" stroke="#000" stroke-width="3" fill="none"/><path d="M786.04 461.87h-3v-1.54h3zM786.04 435.5h-3v-1.54h3z"/><path d="M930.93 609.28c6.43 0 11.65 5.2 11.65 11.65v93.2c0 6.43-5.22 11.64-11.65 11.64H638.16c-6.43 0-11.65-5.2-11.65-11.65v-93.2c0-6.43 5.23-11.64 11.66-11.64z" stroke="#000" stroke-width="2" fill="#5abaa7"/><g><use xlink:href="#a" transform="matrix(1,0,0,1,646.5098930414044,609.2763699516584) translate(0 33.69999999999999)"/><use xlink:href="#b" transform="matrix(1,0,0,1,646.5098930414044,609.2763699516584) translate(71.95 33.69999999999999)"/><use xlink:href="#D" transform="matrix(1,0,0,1,646.5098930414044,609.2763699516584) translate(99.9 33.69999999999999)"/><use xlink:href="#x" transform="matrix(1,0,0,1,646.5098930414044,609.2763699516584) translate(0 55.29999999999999)"/><use xlink:href="#E" transform="matrix(1,0,0,1,646.5098930414044,609.2763699516584) translate(48.95 55.29999999999999)"/><use xlink:href="#f" transform="matrix(1,0,0,1,646.5098930414044,609.2763699516584) translate(0 76.89999999999999)"/><use xlink:href="#g" transform="matrix(1,0,0,1,646.5098930414044,609.2763699516584) translate(98.95 76.89999999999999)"/><use xlink:href="#F" transform="matrix(1,0,0,1,646.5098930414044,609.2763699516584) translate(147.95 76.89999999999999)"/><use xlink:href="#i" transform="matrix(1,0,0,1,646.5098930414044,609.2763699516584) translate(0 98.5)"/><use xlink:href="#G" transform="matrix(1,0,0,1,646.5098930414044,609.2763699516584) translate(53.95 98.5)"/></g><path d="M784.54 581.87v24.9" stroke="#000" stroke-width="3" fill="none"/><path d="M786.04 581.9h-3v-1.53h3zM786.04 608.28h-3v-1.54h3zM591.3 618.84l.95 3.68 1 3.38 1.08 3.07 1.1 2.78 1.12 2.52 1.13 2.28 1.13 2.05 1.13 1.86 1.12 1.67 1.1 1.52 1.1 1.38 1.07 1.25 1.06 1.13 1.05 1.04 1.04.94 1.03.85.43.32-1.2 1.6-.47-.35-1.1-.9-1.1-1-1.1-1.1-1.13-1.2-1.13-1.3-1.14-1.44-1.16-1.58-1.16-1.75-1.16-1.93-1.17-2.13-1.16-2.35-1.15-2.6-1.14-2.86-1.1-3.15-1.04-3.44-.97-3.77-.66-3.1h2.04zm17.63-81.56l-.43.32-1.03.86-1.04.93-1.05 1.02-1.06 1.13-1.08 1.25-1.1 1.38-1.1 1.52-1.1 1.67-1.13 1.86-1.12 2.05-1.12 2.28-1.13 2.52-1.1 2.78-1.06 3.07-1.02 3.37-.95 3.7-.85 3.98-.1.62h-2.03l.17-1 .85-4.07.97-3.76 1.04-3.46 1.1-3.14 1.13-2.86 1.15-2.6 1.16-2.34 1.18-2.13 1.17-1.93 1.16-1.75 1.16-1.58 1.14-1.44 1.13-1.3 1.12-1.2 1.1-1.1 1.12-1 1.1-.9.45-.34zM622.45 656.18l-15-.23 3-8.77z"/><path d="M625.5 657.22l-19.44-.3 3.9-11.37zm-16.66-2.25l10.54.16-8.43-6.33zM610.45 540.66l-3-8.78 15-.22z"/><path d="M609.95 542.28l-3.9-11.37 19.46-.3zm-1.1-9.42l2.1 6.17 8.44-6.33z"/><g><use xlink:href="#u" transform="matrix(1,0,0,1,561.4605425323192,573.5992389700693) translate(0.004999999999999005 14.4)"/></g><g><use xlink:href="#v" transform="matrix(1,0,0,1,567.6744621239317,594.5900863632183) translate(0.004999999999999005 14.4)"/></g><path d="M930.93 755.68c6.43 0 11.65 5.22 11.65 11.65v93.2c0 6.44-5.22 11.65-11.65 11.65H638.16c-6.43 0-11.65-5.2-11.65-11.65v-93.2c0-6.43 5.23-11.65 11.66-11.65z" stroke="#000" stroke-width="2" fill="#5abaa7"/><g><use xlink:href="#a" transform="matrix(1,0,0,1,646.5098930414044,755.6841461723113) translate(0 22.4)"/><use xlink:href="#b" transform="matrix(1,0,0,1,646.5098930414044,755.6841461723113) translate(71.95 22.4)"/><use xlink:href="#H" transform="matrix(1,0,0,1,646.5098930414044,755.6841461723113) translate(99.9 22.4)"/><use xlink:href="#d" transform="matrix(1,0,0,1,646.5098930414044,755.6841461723113) translate(0 44)"/><use xlink:href="#I" transform="matrix(1,0,0,1,646.5098930414044,755.6841461723113) translate(48.95 44)"/><use xlink:href="#J" transform="matrix(1,0,0,1,646.5098930414044,755.6841461723113) translate(0 65.60000000000001)"/><use xlink:href="#K" transform="matrix(1,0,0,1,646.5098930414044,755.6841461723113) translate(57.85000000000001 65.60000000000001)"/></g><path d="M784.54 753.18v-24.9" stroke="#000" stroke-width="3" fill="none"/><path d="M786.04 754.68h-3v-1.53h3zM786.04 728.3h-3v-1.53h3zM590.55 772.72l.96 3.76 1.05 3.45 1.1 3.14 1.12 2.84 1.14 2.58 1.17 2.33 1.15 2.1 1.15 1.9 1.14 1.72 1.13 1.55 1.12 1.4 1.1 1.28 1.08 1.16 1.08 1.06 1.07.96 1.05.87.75.56-1.2 1.6-.8-.6-1.1-.93-1.13-1-1.14-1.12-1.14-1.2-1.15-1.35-1.16-1.47-1.18-1.62-1.18-1.78-1.2-1.97-1.2-2.16-1.18-2.4-1.17-2.65-1.16-2.94-1.12-3.2-1.06-3.54-1-3.85-.67-3.16h2.04zm-2.8-24.3h-2v-1.94h2zm21.13-59.26l-.75.57-1.06.87-1.06.96-1.06 1.05-1.1 1.17-1.1 1.27-1.1 1.4-1.13 1.56-1.13 1.7-1.15 1.9-1.15 2.1-1.15 2.33-1.15 2.57-1.12 2.85-1.1 3.13-1.03 3.45-.97 3.76-.65 3.08h-2.05l.75-3.54 1-3.85 1.05-3.53 1.12-3.22 1.16-2.92 1.18-2.65 1.2-2.4 1.2-2.17 1.18-1.96 1.2-1.78 1.16-1.62 1.17-1.47 1.16-1.34 1.15-1.22 1.14-1.1 1.13-1 1.1-.94.8-.6zM622.44 810.9l-15-.13 2.94-8.8z"/><path d="M625.5 811.92l-19.45-.16 3.82-11.4zm-16.68-2.14l10.55.1-8.48-6.28zM610.38 692.55l-2.94-8.8 15-.12z"/><path d="M609.87 694.17l-3.8-11.4 19.44-.17zm-1.04-9.43l2.06 6.18 8.47-6.27z"/><g><use xlink:href="#u" transform="matrix(1,0,0,1,560.8138978476103,724.8833811462391) translate(0.004999999999999005 14.4)"/></g><g><use xlink:href="#v" transform="matrix(1,0,0,1,566.8949779393215,748.4100947881626) translate(0.004999999999999005 14.4)"/></g><defs><path d="M212-179c-10-28-35-45-73-45-59 0-87 40-87 99 0 60 29 101 89 101 43 0 62-24 78-52l27 14C228-24 195 4 139 4 59 4 22-46 18-125c-6-104 99-153 187-111 19 9 31 26 39 46" id="L"/><path d="M100-194c62-1 85 37 85 99 1 63-27 99-86 99S16-35 15-95c0-66 28-99 85-99zM99-20c44 1 53-31 53-75 0-43-8-75-51-75s-53 32-53 75 10 74 51 75" id="M"/><path d="M117-194c89-4 53 116 60 194h-32v-121c0-31-8-49-39-48C34-167 62-67 57 0H25l-1-190h30c1 10-1 24 2 32 11-22 29-35 61-36" id="N"/><path d="M96-169c-40 0-48 33-48 73s9 75 48 75c24 0 41-14 43-38l32 2c-6 37-31 61-74 61-59 0-76-41-82-99-10-93 101-131 147-64 4 7 5 14 7 22l-32 3c-4-21-16-35-41-35" id="O"/><path d="M100-194c63 0 86 42 84 106H49c0 40 14 67 53 68 26 1 43-12 49-29l28 8c-11 28-37 45-77 45C44 4 14-33 15-96c1-61 26-98 85-98zm52 81c6-60-76-77-97-28-3 7-6 17-6 28h103" id="P"/><path d="M115-194c55 1 70 41 70 98S169 2 115 4C84 4 66-9 55-30l1 105H24l-1-265h31l2 30c10-21 28-34 59-34zm-8 174c40 0 45-34 45-75s-6-73-45-74c-42 0-51 32-51 76 0 43 10 73 51 73" id="Q"/><path d="M59-47c-2 24 18 29 38 22v24C64 9 27 4 27-40v-127H5v-23h24l9-43h21v43h35v23H59v120" id="R"/><g id="a"><use transform="matrix(0.05,0,0,0.05,0,0)" xlink:href="#L"/><use transform="matrix(0.05,0,0,0.05,12.950000000000001,0)" xlink:href="#M"/><use transform="matrix(0.05,0,0,0.05,22.950000000000003,0)" xlink:href="#N"/><use transform="matrix(0.05,0,0,0.05,32.95,0)" xlink:href="#O"/><use transform="matrix(0.05,0,0,0.05,41.95,0)" xlink:href="#P"/><use transform="matrix(0.05,0,0,0.05,51.95,0)" xlink:href="#Q"/><use transform="matrix(0.05,0,0,0.05,61.95,0)" xlink:href="#R"/></g><path d="M33 0v-248h34V0H33" id="S"/><path d="M30-248c118-7 216 8 213 122C240-48 200 0 122 0H30v-248zM63-27c89 8 146-16 146-99s-60-101-146-95v194" id="T"/><path d="M33-154v-36h34v36H33zM33 0v-36h34V0H33" id="U"/><g id="b"><use transform="matrix(0.05,0,0,0.05,0,0)" xlink:href="#S"/><use transform="matrix(0.05,0,0,0.05,5,0)" xlink:href="#T"/><use transform="matrix(0.05,0,0,0.05,17.950000000000003,0)" xlink:href="#U"/></g><path d="M101-251c82-7 93 87 43 132L82-64C71-53 59-42 53-27h129V0H18c2-99 128-94 128-182 0-28-16-43-45-43s-46 15-49 41l-32-3c6-41 34-60 81-64" id="V"/><path d="M141 0L90-78 38 0H4l68-98-65-92h35l48 74 47-74h35l-64 92 68 98h-35" id="W"/><path d="M195 0l-74-108L45 0H8l94-129-87-119h37l69 98 67-98h37l-84 118L233 0h-38" id="X"/><path d="M-5 72V49h209v23H-5" id="Y"/><path d="M194 0L95-120 63-95V0H30v-248h33v124l119-124h40L117-140 236 0h-42" id="Z"/><path d="M190 0L58-211 59 0H30v-248h39L202-35l-2-213h31V0h-41" id="aa"/><path d="M101-234c-31-9-42 10-38 44h38v23H63V0H32v-167H5v-23h27c-7-52 17-82 69-68v24" id="ab"/><g id="c"><use transform="matrix(0.048,0,0,0.048,0,0)" xlink:href="#V"/><use transform="matrix(0.048,0,0,0.048,9.6,0)" xlink:href="#W"/><use transform="matrix(0.048,0,0,0.048,18.240000000000002,0)" xlink:href="#X"/><use transform="matrix(0.048,0,0,0.048,29.76,0)" xlink:href="#P"/><use transform="matrix(0.048,0,0,0.048,39.36,0)" xlink:href="#Y"/><use transform="matrix(0.048,0,0,0.048,48.96,0)" xlink:href="#V"/><use transform="matrix(0.048,0,0,0.048,58.56,0)" xlink:href="#Z"/><use transform="matrix(0.048,0,0,0.048,70.08,0)" xlink:href="#L"/><use transform="matrix(0.048,0,0,0.048,82.512,0)" xlink:href="#Y"/><use transform="matrix(0.048,0,0,0.048,92.112,0)" xlink:href="#aa"/><use transform="matrix(0.048,0,0,0.048,104.544,0)" xlink:href="#ab"/><use transform="matrix(0.048,0,0,0.048,109.34400000000001,0)" xlink:href="#V"/></g><path d="M127-220V0H93v-220H8v-28h204v28h-85" id="ac"/><path d="M179-190L93 31C79 59 56 82 12 73V49c39 6 53-20 64-50L1-190h34L92-34l54-156h33" id="ad"/><g id="d"><use transform="matrix(0.05,0,0,0.05,0,0)" xlink:href="#ac"/><use transform="matrix(0.05,0,0,0.05,9.950000000000001,0)" xlink:href="#ad"/><use transform="matrix(0.05,0,0,0.05,18.950000000000003,0)" xlink:href="#Q"/><use transform="matrix(0.05,0,0,0.05,28.950000000000003,0)" xlink:href="#P"/><use transform="matrix(0.05,0,0,0.05,38.95,0)" xlink:href="#U"/></g><path d="M135-143c-3-34-86-38-87 0 15 53 115 12 119 90S17 21 10-45l28-5c4 36 97 45 98 0-10-56-113-15-118-90-4-57 82-63 122-42 12 7 21 19 24 35" id="ae"/><path d="M143 0L79-87 56-68V0H24v-261h32v163l83-92h37l-77 82L181 0h-38" id="af"/><path d="M16-82v-28h88v28H16" id="ag"/><path d="M24 0v-261h32V0H24" id="ah"/><path d="M108 0H70L1-190h34L89-25l56-165h34" id="ai"/><path d="M27 0v-27h64v-190l-56 39v-29l58-41h29v221h61V0H27" id="aj"/><g id="e"><use transform="matrix(0.05,0,0,0.05,0,0)" xlink:href="#ae"/><use transform="matrix(0.05,0,0,0.05,9,0)" xlink:href="#ae"/><use transform="matrix(0.05,0,0,0.05,18,0)" xlink:href="#ad"/><use transform="matrix(0.05,0,0,0.05,27,0)" xlink:href="#af"/><use transform="matrix(0.05,0,0,0.05,36,0)" xlink:href="#ag"/><use transform="matrix(0.05,0,0,0.05,41.95,0)" xlink:href="#ah"/><use transform="matrix(0.05,0,0,0.05,45.900000000000006,0)" xlink:href="#P"/><use transform="matrix(0.05,0,0,0.05,55.900000000000006,0)" xlink:href="#ai"/><use transform="matrix(0.05,0,0,0.05,64.9,0)" xlink:href="#P"/><use transform="matrix(0.05,0,0,0.05,74.9,0)" xlink:href="#ah"/><use transform="matrix(0.05,0,0,0.05,78.85000000000001,0)" xlink:href="#ag"/><use transform="matrix(0.05,0,0,0.05,84.80000000000001,0)" xlink:href="#aj"/></g><path d="M185-189c-5-48-123-54-124 2 14 75 158 14 163 119 3 78-121 87-175 55-17-10-28-26-33-46l33-7c5 56 141 63 141-1 0-78-155-14-162-118-5-82 145-84 179-34 5 7 8 16 11 25" id="ak"/><path d="M137-103V0h-34v-103L8-248h37l75 118 75-118h37" id="al"/><path d="M101-251c68 0 85 55 85 127S166 4 100 4C33 4 14-52 14-124c0-73 17-127 87-127zm-1 229c47 0 54-49 54-102s-4-102-53-102c-51 0-55 48-55 102 0 53 5 102 54 102" id="am"/><g id="f"><use transform="matrix(0.05,0,0,0.05,0,0)" xlink:href="#ak"/><use transform="matrix(0.05,0,0,0.05,12,0)" xlink:href="#ak"/><use transform="matrix(0.05,0,0,0.05,24,0)" xlink:href="#al"/><use transform="matrix(0.05,0,0,0.05,36,0)" xlink:href="#Z"/><use transform="matrix(0.05,0,0,0.05,48,0)" xlink:href="#ag"/><use transform="matrix(0.05,0,0,0.05,53.95,0)" xlink:href="#V"/><use transform="matrix(0.05,0,0,0.05,63.95,0)" xlink:href="#am"/><use transform="matrix(0.05,0,0,0.05,73.95,0)" xlink:href="#aj"/><use transform="matrix(0.05,0,0,0.05,83.95,0)" xlink:href="#V"/></g><path d="M85-194c31 0 48 13 60 33l-1-100h32l1 261h-30c-2-10 0-23-3-31C134-8 116 4 85 4 32 4 16-35 15-94c0-66 23-100 70-100zm9 24c-40 0-46 34-46 75 0 40 6 74 45 74 42 0 51-32 51-76 0-42-9-74-50-73" id="an"/><g id="g"><use transform="matrix(0.05,0,0,0.05,0,0)" xlink:href="#O"/><use transform="matrix(0.05,0,0,0.05,9,0)" xlink:href="#M"/><use transform="matrix(0.05,0,0,0.05,19,0)" xlink:href="#an"/><use transform="matrix(0.05,0,0,0.05,29,0)" xlink:href="#P"/><use transform="matrix(0.05,0,0,0.05,39,0)" xlink:href="#U"/></g><path d="M64 0c3-98 48-159 88-221H18v-27h164v26C143-157 98-101 97 0H64" id="ao"/><use transform="matrix(0.05,0,0,0.05,0,0)" xlink:href="#ao" id="h"/><path d="M30 0v-248h33v221h125V0H30" id="ap"/><path d="M141-36C126-15 110 5 73 4 37 3 15-17 15-53c-1-64 63-63 125-63 3-35-9-54-41-54-24 1-41 7-42 31l-33-3c5-37 33-52 76-52 45 0 72 20 72 64v82c-1 20 7 32 28 27v20c-31 9-61-2-59-35zM48-53c0 20 12 33 32 33 41-3 63-29 60-74-43 2-92-5-92 41" id="aq"/><path d="M115-194c53 0 69 39 70 98 0 66-23 100-70 100C84 3 66-7 56-30L54 0H23l1-261h32v101c10-23 28-34 59-34zm-8 174c40 0 45-34 45-75 0-40-5-75-45-74-42 0-51 32-51 76 0 43 10 73 51 73" id="ar"/><g id="i"><use transform="matrix(0.05,0,0,0.05,0,0)" xlink:href="#ap"/><use transform="matrix(0.05,0,0,0.05,10,0)" xlink:href="#aq"/><use transform="matrix(0.05,0,0,0.05,20,0)" xlink:href="#ar"/><use transform="matrix(0.05,0,0,0.05,30,0)" xlink:href="#P"/><use transform="matrix(0.05,0,0,0.05,40,0)" xlink:href="#ah"/><use transform="matrix(0.05,0,0,0.05,43.95,0)" xlink:href="#U"/></g><path d="M146-102V0H94v-102L6-248h54l60 105 60-105h54" id="as"/><path d="M135-150c-39-12-60 13-60 57V0H25l-1-190h47c2 13-1 29 3 40 6-28 27-53 61-41v41" id="at"/><path d="M147 0L96-86 75-71V0H25v-261h50v150l67-79h53l-66 74L201 0h-54" id="au"/><path d="M185-48c-13 30-37 53-82 52C43 2 14-33 14-96s30-98 90-98c62 0 83 45 84 108H66c0 31 8 55 39 56 18 0 30-7 34-22zm-45-69c5-46-57-63-70-21-2 6-4 13-4 21h74" id="av"/><path d="M135-194c87-1 58 113 63 194h-50c-7-57 23-157-34-157-59 0-34 97-39 157H25l-1-190h47c2 12-1 28 3 38 12-26 28-41 61-42" id="aw"/><g id="j"><use transform="matrix(0.04938271604938272,0,0,0.04938271604938272,0,0)" xlink:href="#as"/><use transform="matrix(0.04938271604938272,0,0,0.04938271604938272,11.851851851851853,0)" xlink:href="#at"/><use transform="matrix(0.04938271604938272,0,0,0.04938271604938272,18.765432098765434,0)" xlink:href="#au"/><use transform="matrix(0.04938271604938272,0,0,0.04938271604938272,28.641975308641978,0)" xlink:href="#av"/><use transform="matrix(0.04938271604938272,0,0,0.04938271604938272,38.51851851851852,0)" xlink:href="#aw"/></g><path d="M25-224v-37h50v37H25zM25 0v-190h50V0H25" id="ax"/><path d="M110-194c64 0 96 36 96 99 0 64-35 99-97 99-61 0-95-36-95-99 0-62 34-99 96-99zm-1 164c35 0 45-28 45-65 0-40-10-65-43-65-34 0-45 26-45 65 0 36 10 65 43 65" id="ay"/><path d="M220-157c-53 9-28 100-34 157h-49v-107c1-27-5-49-29-50C55-147 81-57 75 0H25l-1-190h47c2 12-1 28 3 38 10-53 101-56 108 0 13-22 24-43 59-42 82 1 51 116 57 194h-49v-107c-1-25-5-48-29-50" id="az"/><g id="k"><use transform="matrix(0.04938271604938272,0,0,0.04938271604938272,0,0)" xlink:href="#ax"/><use transform="matrix(0.04938271604938272,0,0,0.04938271604938272,4.938271604938272,0)" xlink:href="#aw"/><use transform="matrix(0.04938271604938272,0,0,0.04938271604938272,15.753086419753087,0)" xlink:href="#ay"/><use transform="matrix(0.04938271604938272,0,0,0.04938271604938272,26.567901234567902,0)" xlink:href="#az"/></g><path d="M135-194c52 0 70 43 70 98 0 56-19 99-73 100-30 1-46-15-58-35L72 0H24l1-261h50v104c11-23 29-37 60-37zM114-30c31 0 40-27 40-66 0-37-7-63-39-63s-41 28-41 65c0 36 8 64 40 64" id="aA"/><path d="M123 10C108 53 80 86 19 72V37c35 8 53-11 59-39L3-190h52l48 148c12-52 28-100 44-148h51" id="aB"/><path d="M195-6C206 82 75 100 31 46c-4-6-6-13-8-21l49-6c3 16 16 24 34 25 40 0 42-37 40-79-11 22-30 35-61 35-53 0-70-43-70-97 0-56 18-96 73-97 30 0 46 14 59 34l2-30h47zm-90-29c32 0 41-27 41-63 0-35-9-62-40-62-32 0-39 29-40 63 0 36 9 62 39 62" id="aC"/><path d="M128 0H69L1-190h53L99-40l48-150h52" id="aD"/><path d="M137-138c1-29-70-34-71-4 15 46 118 7 119 86 1 83-164 76-172 9l43-7c4 19 20 25 44 25 33 8 57-30 24-41C81-84 22-81 20-136c-2-80 154-74 161-7" id="aE"/><path d="M133-34C117-15 103 5 69 4 32 3 11-16 11-54c-1-60 55-63 116-61 1-26-3-47-28-47-18 1-26 9-28 27l-52-2c7-38 36-58 82-57s74 22 75 68l1 82c-1 14 12 18 25 15v27c-30 8-71 5-69-32zm-48 3c29 0 43-24 42-57-32 0-66-3-65 30 0 17 8 27 23 27" id="aF"/><path d="M114-157C55-157 80-60 75 0H25v-261h50l-1 109c12-26 28-41 61-42 86-1 58 113 63 194h-50c-7-57 23-157-34-157" id="aG"/><path d="M115-3C79 11 28 4 28-45v-112H4v-33h27l15-45h31v45h36v33H77v99c-1 23 16 31 38 25v30" id="aH"/><g id="l"><use transform="matrix(0.04938271604938272,0,0,0.04938271604938272,0,0)" xlink:href="#aA"/><use transform="matrix(0.04938271604938272,0,0,0.04938271604938272,10.814814814814815,0)" xlink:href="#aB"/><use transform="matrix(0.04938271604938272,0,0,0.04938271604938272,20.69135802469136,0)" xlink:href="#aC"/><use transform="matrix(0.04938271604938272,0,0,0.04938271604938272,31.506172839506174,0)" xlink:href="#aC"/><use transform="matrix(0.04938271604938272,0,0,0.04938271604938272,42.320987654320994,0)" xlink:href="#aD"/><use transform="matrix(0.04938271604938272,0,0,0.04938271604938272,52.19753086419754,0)" xlink:href="#av"/><use transform="matrix(0.04938271604938272,0,0,0.04938271604938272,62.074074074074076,0)" xlink:href="#at"/><use transform="matrix(0.04938271604938272,0,0,0.04938271604938272,68.98765432098766,0)" xlink:href="#au"/><use transform="matrix(0.04938271604938272,0,0,0.04938271604938272,78.8641975308642,0)" xlink:href="#aE"/><use transform="matrix(0.04938271604938272,0,0,0.04938271604938272,88.74074074074075,0)" xlink:href="#aF"/><use transform="matrix(0.04938271604938272,0,0,0.04938271604938272,98.61728395061729,0)" xlink:href="#az"/><use transform="matrix(0.04938271604938272,0,0,0.04938271604938272,114.41975308641976,0)" xlink:href="#aG"/><use transform="matrix(0.04938271604938272,0,0,0.04938271604938272,125.23456790123458,0)" xlink:href="#av"/><use transform="matrix(0.04938271604938272,0,0,0.04938271604938272,135.11111111111111,0)" xlink:href="#aH"/></g><path d="M190-63c-7 42-38 67-86 67-59 0-84-38-90-98-12-110 154-137 174-36l-49 2c-2-19-15-32-35-32-30 0-35 28-38 64-6 74 65 87 74 30" id="aI"/><g id="m"><use transform="matrix(0.04938271604938272,0,0,0.04938271604938272,0,0)" xlink:href="#ay"/><use transform="matrix(0.04938271604938272,0,0,0.04938271604938272,10.814814814814815,0)" xlink:href="#aI"/><use transform="matrix(0.04938271604938272,0,0,0.04938271604938272,20.69135802469136,0)" xlink:href="#aG"/></g><path d="M25 0v-261h50V0H25" id="aJ"/><g id="n"><use transform="matrix(0.04938271604938272,0,0,0.04938271604938272,0,0)" xlink:href="#aH"/><use transform="matrix(0.04938271604938272,0,0,0.04938271604938272,5.8765432098765435,0)" xlink:href="#ax"/><use transform="matrix(0.04938271604938272,0,0,0.04938271604938272,10.814814814814817,0)" xlink:href="#aJ"/><use transform="matrix(0.04938271604938272,0,0,0.04938271604938272,15.753086419753087,0)" xlink:href="#aJ"/><use transform="matrix(0.04938271604938272,0,0,0.04938271604938272,20.69135802469136,0)" xlink:href="#aD"/><use transform="matrix(0.04938271604938272,0,0,0.04938271604938272,30.567901234567906,0)" xlink:href="#av"/><use transform="matrix(0.04938271604938272,0,0,0.04938271604938272,40.44444444444445,0)" xlink:href="#at"/><use transform="matrix(0.04938271604938272,0,0,0.04938271604938272,47.35802469135803,0)" xlink:href="#au"/><use transform="matrix(0.04938271604938272,0,0,0.04938271604938272,57.23456790123457,0)" xlink:href="#aw"/><use transform="matrix(0.04938271604938272,0,0,0.04938271604938272,68.0493827160494,0)" xlink:href="#ax"/><use transform="matrix(0.04938271604938272,0,0,0.04938271604938272,72.98765432098767,0)" xlink:href="#aw"/><use transform="matrix(0.04938271604938272,0,0,0.04938271604938272,83.80246913580248,0)" xlink:href="#aC"/></g><path d="M134-131c28 9 52 24 51 62-1 50-34 73-85 73S17-19 16-69c0-36 21-54 49-61-75-25-45-126 34-121 46 3 78 18 79 63 0 33-17 51-44 57zm-34-11c31 1 46-15 46-44 0-28-17-43-47-42-29 0-46 13-45 42 1 28 16 44 46 44zm1 122c35 0 51-18 51-52 0-30-18-46-53-46-33 0-51 17-51 47 0 34 19 51 53 51" id="aK"/><path d="M24-231v-30h32v30H24zM-9 49c24 4 33-6 33-30v-209h32V24c2 40-23 58-65 49V49" id="aL"/><path d="M266 0h-40l-56-210L115 0H75L2-248h35L96-30l15-64 43-154h32l59 218 59-218h35" id="aM"/><path d="M232-93c-1 65-40 97-104 97C67 4 28-28 28-90v-158h33c8 89-33 224 67 224 102 0 64-133 71-224h33v155" id="aN"/><path d="M177-190C167-65 218 103 67 71c-23-6-38-20-44-43l32-5c15 47 100 32 89-28v-30C133-14 115 1 83 1 29 1 15-40 15-95c0-56 16-97 71-98 29-1 48 16 59 35 1-10 0-23 2-32h30zM94-22c36 0 50-32 50-73 0-42-14-75-50-75-39 0-46 34-46 75s6 73 46 73" id="aO"/><g id="o"><use transform="matrix(0.048,0,0,0.048,0,0)" xlink:href="#aK"/><use transform="matrix(0.048,0,0,0.048,9.6,0)" xlink:href="#T"/><use transform="matrix(0.048,0,0,0.048,22.032,0)" xlink:href="#aL"/><use transform="matrix(0.048,0,0,0.048,25.824,0)" xlink:href="#aM"/><use transform="matrix(0.048,0,0,0.048,42.096000000000004,0)" xlink:href="#Y"/><use transform="matrix(0.048,0,0,0.048,51.696,0)" xlink:href="#ak"/><use transform="matrix(0.048,0,0,0.048,63.216000000000015,0)" xlink:href="#aN"/><use transform="matrix(0.048,0,0,0.048,75.64800000000001,0)" xlink:href="#aN"/><use transform="matrix(0.048,0,0,0.048,88.08000000000001,0)" xlink:href="#Y"/><use transform="matrix(0.048,0,0,0.048,97.68,0)" xlink:href="#aO"/><use transform="matrix(0.048,0,0,0.048,107.28,0)" xlink:href="#L"/><use transform="matrix(0.048,0,0,0.048,119.712,0)" xlink:href="#ao"/></g><g id="p"><use transform="matrix(0.05,0,0,0.05,0,0)" xlink:href="#ae"/><use transform="matrix(0.05,0,0,0.05,9,0)" xlink:href="#ae"/><use transform="matrix(0.05,0,0,0.05,18,0)" xlink:href="#ad"/><use transform="matrix(0.05,0,0,0.05,27,0)" xlink:href="#af"/><use transform="matrix(0.05,0,0,0.05,36,0)" xlink:href="#ag"/><use transform="matrix(0.05,0,0,0.05,41.95,0)" xlink:href="#ah"/><use transform="matrix(0.05,0,0,0.05,45.900000000000006,0)" xlink:href="#P"/><use transform="matrix(0.05,0,0,0.05,55.900000000000006,0)" xlink:href="#ai"/><use transform="matrix(0.05,0,0,0.05,64.9,0)" xlink:href="#P"/><use transform="matrix(0.05,0,0,0.05,74.9,0)" xlink:href="#ah"/><use transform="matrix(0.05,0,0,0.05,78.85000000000001,0)" xlink:href="#ag"/><use transform="matrix(0.05,0,0,0.05,84.80000000000001,0)" xlink:href="#V"/></g><g id="q"><use transform="matrix(0.05,0,0,0.05,0,0)" xlink:href="#ao"/><use transform="matrix(0.05,0,0,0.05,10,0)" xlink:href="#aj"/></g><path d="M182-130c37 4 62 22 62 59C244 23 116-4 24 0v-248c84 5 203-23 205 63 0 31-19 50-47 55zM76-148c40-3 101 13 101-30 0-44-60-28-101-31v61zm0 110c48-3 116 14 116-37 0-48-69-32-116-35v72" id="aP"/><path d="M88-194c31-1 46 15 58 34l-1-101h50l1 261h-48c-2-10 0-23-3-31C134-8 116 4 84 4 32 4 16-41 15-95c0-56 19-97 73-99zm17 164c33 0 40-30 41-66 1-37-9-64-41-64s-38 30-39 65c0 43 13 65 39 65" id="aQ"/><path d="M14-72v-43h91v43H14" id="aR"/><g id="r"><use transform="matrix(0.048,0,0,0.048,0,0)" xlink:href="#aP"/><use transform="matrix(0.048,0,0,0.048,12.432,0)" xlink:href="#aB"/><use transform="matrix(0.048,0,0,0.048,22.032,0)" xlink:href="#aC"/><use transform="matrix(0.048,0,0,0.048,32.544,0)" xlink:href="#aC"/><use transform="matrix(0.048,0,0,0.048,43.056,0)" xlink:href="#aw"/><use transform="matrix(0.048,0,0,0.048,53.568,0)" xlink:href="#aF"/><use transform="matrix(0.048,0,0,0.048,63.168,0)" xlink:href="#aQ"/><use transform="matrix(0.048,0,0,0.048,73.68,0)" xlink:href="#aE"/><use transform="matrix(0.048,0,0,0.048,83.28,0)" xlink:href="#aR"/></g><g id="s"><use transform="matrix(0.048,0,0,0.048,0,0)" xlink:href="#ay"/><use transform="matrix(0.048,0,0,0.048,10.512,0)" xlink:href="#aI"/><use transform="matrix(0.048,0,0,0.048,20.112000000000002,0)" xlink:href="#aG"/></g><path d="M132-34C116-15 102 5 68 4 31 3 10-16 10-54c-1-60 55-63 116-61 1-26-3-47-28-47-18 1-26 9-28 27l-52-2c7-38 36-58 82-57s74 22 75 68l1 82c-1 14 12 18 25 15v27c-30 8-71 5-69-32zm-48 3c29 0 43-24 42-57-32 0-66-3-65 30 0 17 8 27 23 27zm33-180v-38h38v38h-38zm-76 0v-38h37v38H41" id="aS"/><g id="t"><use transform="matrix(0.048,0,0,0.048,0,0)" xlink:href="#aF"/><use transform="matrix(0.048,0,0,0.048,9.6,0)" xlink:href="#aw"/><use transform="matrix(0.048,0,0,0.048,20.112000000000002,0)" xlink:href="#aJ"/><use transform="matrix(0.048,0,0,0.048,24.912,0)" xlink:href="#aS"/><use transform="matrix(0.048,0,0,0.048,34.512,0)" xlink:href="#aC"/><use transform="matrix(0.048,0,0,0.048,45.024,0)" xlink:href="#aC"/><use transform="matrix(0.048,0,0,0.048,55.536,0)" xlink:href="#aw"/><use transform="matrix(0.048,0,0,0.048,66.048,0)" xlink:href="#ax"/><use transform="matrix(0.048,0,0,0.048,70.848,0)" xlink:href="#aw"/><use transform="matrix(0.048,0,0,0.048,81.36,0)" xlink:href="#aC"/><use transform="matrix(0.048,0,0,0.048,91.872,0)" xlink:href="#aE"/><use transform="matrix(0.048,0,0,0.048,101.47200000000001,0)" xlink:href="#aB"/><use transform="matrix(0.048,0,0,0.048,111.07199999999997,0)" xlink:href="#at"/><use transform="matrix(0.048,0,0,0.048,117.79199999999999,0)" xlink:href="#au"/><use transform="matrix(0.048,0,0,0.048,127.39199999999998,0)" xlink:href="#av"/><use transform="matrix(0.048,0,0,0.048,136.992,0)" xlink:href="#aw"/></g><path d="M30-248c87 1 191-15 191 75 0 78-77 80-158 76V0H30v-248zm33 125c57 0 124 11 124-50 0-59-68-47-124-48v98" id="aT"/><path d="M114-163C36-179 61-72 57 0H25l-1-190h30c1 12-1 29 2 39 6-27 23-49 58-41v29" id="aU"/><g id="u"><use transform="matrix(0.05,0,0,0.05,0,0)" xlink:href="#aT"/><use transform="matrix(0.05,0,0,0.05,12,0)" xlink:href="#aq"/><use transform="matrix(0.05,0,0,0.05,22,0)" xlink:href="#aU"/><use transform="matrix(0.05,0,0,0.05,27.950000000000003,0)" xlink:href="#P"/><use transform="matrix(0.05,0,0,0.05,37.95,0)" xlink:href="#N"/><use transform="matrix(0.05,0,0,0.05,47.95,0)" xlink:href="#R"/></g><path d="M106-169C34-169 62-67 57 0H25v-261h32l-1 103c12-21 28-36 61-36 89 0 53 116 60 194h-32v-121c2-32-8-49-39-48" id="aV"/><path d="M24-231v-30h32v30H24zM24 0v-190h32V0H24" id="aW"/><g id="v"><use transform="matrix(0.05,0,0,0.05,0,0)" xlink:href="#L"/><use transform="matrix(0.05,0,0,0.05,12.950000000000001,0)" xlink:href="#aV"/><use transform="matrix(0.05,0,0,0.05,22.950000000000003,0)" xlink:href="#aW"/><use transform="matrix(0.05,0,0,0.05,26.900000000000002,0)" xlink:href="#ah"/><use transform="matrix(0.05,0,0,0.05,30.85,0)" xlink:href="#an"/></g><g id="w"><use transform="matrix(0.048,0,0,0.048,0,0)" xlink:href="#aK"/><use transform="matrix(0.048,0,0,0.048,9.6,0)" xlink:href="#T"/><use transform="matrix(0.048,0,0,0.048,22.032,0)" xlink:href="#aL"/><use transform="matrix(0.048,0,0,0.048,25.824,0)" xlink:href="#aM"/><use transform="matrix(0.048,0,0,0.048,42.096000000000004,0)" xlink:href="#Y"/><use transform="matrix(0.048,0,0,0.048,51.696,0)" xlink:href="#ak"/><use transform="matrix(0.048,0,0,0.048,63.216000000000015,0)" xlink:href="#aN"/><use transform="matrix(0.048,0,0,0.048,75.64800000000001,0)" xlink:href="#aN"/><use transform="matrix(0.048,0,0,0.048,88.08000000000001,0)" xlink:href="#Y"/><use transform="matrix(0.048,0,0,0.048,97.68,0)" xlink:href="#aO"/><use transform="matrix(0.048,0,0,0.048,107.28,0)" xlink:href="#L"/><use transform="matrix(0.048,0,0,0.048,119.712,0)" xlink:href="#ao"/></g><g id="x"><use transform="matrix(0.05,0,0,0.05,0,0)" xlink:href="#ac"/><use transform="matrix(0.05,0,0,0.05,9.950000000000001,0)" xlink:href="#ad"/><use transform="matrix(0.05,0,0,0.05,18.950000000000003,0)" xlink:href="#Q"/><use transform="matrix(0.05,0,0,0.05,28.950000000000003,0)" xlink:href="#P"/><use transform="matrix(0.05,0,0,0.05,38.95,0)" xlink:href="#U"/></g><path d="M126-127c33 6 58 20 58 59 0 88-139 92-164 29-3-8-5-16-6-25l32-3c6 27 21 44 54 44 32 0 52-15 52-46 0-38-36-46-79-43v-28c39 1 72-4 72-42 0-27-17-43-46-43-28 0-47 15-49 41l-32-3c6-42 35-63 81-64 48-1 79 21 79 65 0 36-21 52-52 59" id="aX"/><g id="y"><use transform="matrix(0.05,0,0,0.05,0,0)" xlink:href="#ae"/><use transform="matrix(0.05,0,0,0.05,9,0)" xlink:href="#ae"/><use transform="matrix(0.05,0,0,0.05,18,0)" xlink:href="#ad"/><use transform="matrix(0.05,0,0,0.05,27,0)" xlink:href="#af"/><use transform="matrix(0.05,0,0,0.05,36,0)" xlink:href="#ag"/><use transform="matrix(0.05,0,0,0.05,41.95,0)" xlink:href="#ah"/><use transform="matrix(0.05,0,0,0.05,45.900000000000006,0)" xlink:href="#P"/><use transform="matrix(0.05,0,0,0.05,55.900000000000006,0)" xlink:href="#ai"/><use transform="matrix(0.05,0,0,0.05,64.9,0)" xlink:href="#P"/><use transform="matrix(0.05,0,0,0.05,74.9,0)" xlink:href="#ah"/><use transform="matrix(0.05,0,0,0.05,78.85000000000001,0)" xlink:href="#ag"/><use transform="matrix(0.05,0,0,0.05,84.80000000000001,0)" xlink:href="#aX"/></g><g id="z"><use transform="matrix(0.05,0,0,0.05,0,0)" xlink:href="#ao"/><use transform="matrix(0.05,0,0,0.05,10,0)" xlink:href="#aj"/><use transform="matrix(0.05,0,0,0.05,18.65,0)" xlink:href="#aj"/></g><path d="M169-182c-1-43-94-46-97-3 18 66 151 10 154 114 3 95-165 93-204 36-6-8-10-19-12-30l50-8c3 46 112 56 116 5-17-69-150-10-154-114-4-87 153-88 188-35 5 8 8 18 10 28" id="aY"/><path d="M76-54c-1 42 2 86-19 110H24C36 42 46 24 48 0H25v-54h51" id="aZ"/><g id="A"><use transform="matrix(0.048,0,0,0.048,0,0)" xlink:href="#aY"/><use transform="matrix(0.048,0,0,0.048,11.52,0)" xlink:href="#aw"/><use transform="matrix(0.048,0,0,0.048,22.032,0)" xlink:href="#ax"/><use transform="matrix(0.048,0,0,0.048,26.832,0)" xlink:href="#aI"/><use transform="matrix(0.048,0,0,0.048,36.432,0)" xlink:href="#au"/><use transform="matrix(0.048,0,0,0.048,46.032000000000004,0)" xlink:href="#aF"/><use transform="matrix(0.048,0,0,0.048,55.632,0)" xlink:href="#at"/><use transform="matrix(0.048,0,0,0.048,62.352000000000004,0)" xlink:href="#av"/><use transform="matrix(0.048,0,0,0.048,71.952,0)" xlink:href="#aZ"/></g><path d="M85 4C-2 5 27-109 22-190h50c7 57-23 150 33 157 60-5 35-97 40-157h50l1 190h-47c-2-12 1-28-3-38-12 25-28 42-61 42" id="ba"/><g id="B"><use transform="matrix(0.048,0,0,0.048,0,0)" xlink:href="#az"/><use transform="matrix(0.048,0,0,0.048,15.36,0)" xlink:href="#ba"/><use transform="matrix(0.048,0,0,0.048,25.872,0)" xlink:href="#at"/><use transform="matrix(0.048,0,0,0.048,32.592,0)" xlink:href="#aF"/><use transform="matrix(0.048,0,0,0.048,42.192,0)" xlink:href="#at"/><use transform="matrix(0.048,0,0,0.048,48.912,0)" xlink:href="#av"/></g><g id="C"><use transform="matrix(0.048,0,0,0.048,0,0)" xlink:href="#aF"/><use transform="matrix(0.048,0,0,0.048,9.6,0)" xlink:href="#aw"/><use transform="matrix(0.048,0,0,0.048,20.112000000000002,0)" xlink:href="#aJ"/><use transform="matrix(0.048,0,0,0.048,24.912,0)" xlink:href="#aS"/><use transform="matrix(0.048,0,0,0.048,34.512,0)" xlink:href="#aC"/><use transform="matrix(0.048,0,0,0.048,45.024,0)" xlink:href="#aC"/><use transform="matrix(0.048,0,0,0.048,55.536,0)" xlink:href="#aw"/><use transform="matrix(0.048,0,0,0.048,66.048,0)" xlink:href="#ax"/><use transform="matrix(0.048,0,0,0.048,70.848,0)" xlink:href="#aw"/><use transform="matrix(0.048,0,0,0.048,81.36,0)" xlink:href="#aC"/><use transform="matrix(0.048,0,0,0.048,91.872,0)" xlink:href="#aE"/><use transform="matrix(0.048,0,0,0.048,101.47200000000001,0)" xlink:href="#aF"/><use transform="matrix(0.048,0,0,0.048,111.07199999999997,0)" xlink:href="#at"/><use transform="matrix(0.048,0,0,0.048,117.79199999999999,0)" xlink:href="#aA"/><use transform="matrix(0.048,0,0,0.048,128.30399999999997,0)" xlink:href="#av"/><use transform="matrix(0.048,0,0,0.048,137.90399999999997,0)" xlink:href="#aH"/><use transform="matrix(0.048,0,0,0.048,143.61599999999996,0)" xlink:href="#aF"/><use transform="matrix(0.048,0,0,0.048,153.21599999999995,0)" xlink:href="#at"/><use transform="matrix(0.048,0,0,0.048,159.93599999999995,0)" xlink:href="#av"/></g><path d="M209 0H11v-25l151-195H24v-28h176v25L50-27h159V0" id="bb"/><path d="M155-56V0h-30v-56H8v-25l114-167h33v167h35v25h-35zm-30-156c-27 46-58 90-88 131h88v-131" id="bc"/><path d="M153-248C145-148 188 4 80 4 36 3 13-21 6-62l32-5c4 25 16 42 43 43 27 0 39-20 39-49v-147H72v-28h81" id="bd"/><path d="M9 0v-24l116-142H16v-24h144v24L44-24h123V0H9" id="be"/><path d="M110-160c48 1 74 30 74 79 0 53-28 85-80 85-65 0-83-55-86-122-5-90 50-162 133-122 14 7 22 21 27 39l-31 6c-5-40-67-38-82-6-9 19-15 44-15 74 11-20 30-34 60-33zm-7 138c34 0 49-23 49-58s-16-56-50-56c-29 0-50 16-49 49 1 36 15 65 50 65" id="bf"/><g id="D"><use transform="matrix(0.04938271604938272,0,0,0.04938271604938272,0,0)" xlink:href="#ar"/><use transform="matrix(0.04938271604938272,0,0,0.04938271604938272,9.876543209876544,0)" xlink:href="#bb"/><use transform="matrix(0.04938271604938272,0,0,0.04938271604938272,20.69135802469136,0)" xlink:href="#bc"/><use transform="matrix(0.04938271604938272,0,0,0.04938271604938272,30.567901234567906,0)" xlink:href="#bd"/><use transform="matrix(0.04938271604938272,0,0,0.04938271604938272,39.4567901234568,0)" xlink:href="#Y"/><use transform="matrix(0.04938271604938272,0,0,0.04938271604938272,49.33333333333334,0)" xlink:href="#aU"/><use transform="matrix(0.04938271604938272,0,0,0.04938271604938272,55.209876543209894,0)" xlink:href="#aW"/><use transform="matrix(0.04938271604938272,0,0,0.04938271604938272,59.111111111111114,0)" xlink:href="#bb"/><use transform="matrix(0.04938271604938272,0,0,0.04938271604938272,69.92592592592594,0)" xlink:href="#Y"/><use transform="matrix(0.04938271604938272,0,0,0.04938271604938272,79.80246913580248,0)" xlink:href="#be"/><use transform="matrix(0.04938271604938272,0,0,0.04938271604938272,88.69135802469137,0)" xlink:href="#Z"/><use transform="matrix(0.04938271604938272,0,0,0.04938271604938272,100.54320987654322,0)" xlink:href="#bf"/></g><g id="E"><use transform="matrix(0.05,0,0,0.05,0,0)" xlink:href="#ae"/><use transform="matrix(0.05,0,0,0.05,9,0)" xlink:href="#ae"/><use transform="matrix(0.05,0,0,0.05,18,0)" xlink:href="#ad"/><use transform="matrix(0.05,0,0,0.05,27,0)" xlink:href="#af"/><use transform="matrix(0.05,0,0,0.05,36,0)" xlink:href="#ag"/><use transform="matrix(0.05,0,0,0.05,41.95,0)" xlink:href="#ah"/><use transform="matrix(0.05,0,0,0.05,45.900000000000006,0)" xlink:href="#P"/><use transform="matrix(0.05,0,0,0.05,55.900000000000006,0)" xlink:href="#ai"/><use transform="matrix(0.05,0,0,0.05,64.9,0)" xlink:href="#P"/><use transform="matrix(0.05,0,0,0.05,74.9,0)" xlink:href="#ah"/><use transform="matrix(0.05,0,0,0.05,78.85000000000001,0)" xlink:href="#ag"/><use transform="matrix(0.05,0,0,0.05,84.80000000000001,0)" xlink:href="#bc"/></g><g id="F"><use transform="matrix(0.05,0,0,0.05,0,0)" xlink:href="#ao"/><use transform="matrix(0.05,0,0,0.05,10,0)" xlink:href="#aj"/><use transform="matrix(0.05,0,0,0.05,18.65,0)" xlink:href="#aj"/><use transform="matrix(0.05,0,0,0.05,28.649999999999995,0)" xlink:href="#bc"/></g><path d="M199 0l-22-63H83L61 0H9l90-248h61L250 0h-51zm-33-102l-36-108c-10 38-24 72-36 108h72" id="bg"/><g id="G"><use transform="matrix(0.05,0,0,0.05,0,0)" xlink:href="#bg"/><use transform="matrix(0.05,0,0,0.05,12.950000000000001,0)" xlink:href="#aw"/><use transform="matrix(0.05,0,0,0.05,23.900000000000002,0)" xlink:href="#aJ"/><use transform="matrix(0.05,0,0,0.05,28.900000000000002,0)" xlink:href="#aS"/><use transform="matrix(0.05,0,0,0.05,38.900000000000006,0)" xlink:href="#aC"/><use transform="matrix(0.05,0,0,0.05,49.85000000000001,0)" xlink:href="#aC"/><use transform="matrix(0.05,0,0,0.05,60.80000000000001,0)" xlink:href="#aw"/><use transform="matrix(0.05,0,0,0.05,71.75000000000001,0)" xlink:href="#ax"/><use transform="matrix(0.05,0,0,0.05,76.75000000000001,0)" xlink:href="#aw"/><use transform="matrix(0.05,0,0,0.05,87.70000000000002,0)" xlink:href="#aC"/><use transform="matrix(0.05,0,0,0.05,98.65000000000002,0)" xlink:href="#aE"/><use transform="matrix(0.05,0,0,0.05,108.65000000000003,0)" xlink:href="#aF"/><use transform="matrix(0.05,0,0,0.05,118.65000000000003,0)" xlink:href="#at"/><use transform="matrix(0.05,0,0,0.05,125.65000000000003,0)" xlink:href="#aA"/><use transform="matrix(0.05,0,0,0.05,136.60000000000002,0)" xlink:href="#av"/><use transform="matrix(0.05,0,0,0.05,146.60000000000002,0)" xlink:href="#aH"/><use transform="matrix(0.05,0,0,0.05,152.55,0)" xlink:href="#aF"/><use transform="matrix(0.05,0,0,0.05,162.55,0)" xlink:href="#at"/><use transform="matrix(0.05,0,0,0.05,169.55,0)" xlink:href="#av"/></g><path d="M54-142c48-35 137-8 131 61C196 18 31 33 14-55l32-4c7 23 22 37 52 37 35-1 51-22 54-58 4-55-73-65-99-34H22l8-134h141v27H59" id="bh"/><path d="M240 0l2-218c-23 76-54 145-80 218h-23L58-218 59 0H30v-248h44l77 211c21-75 51-140 76-211h43V0h-30" id="bi"/><g id="H"><use transform="matrix(0.048,0,0,0.048,0,0)" xlink:href="#ad"/><use transform="matrix(0.048,0,0,0.048,8.64,0)" xlink:href="#bh"/><use transform="matrix(0.048,0,0,0.048,18.240000000000002,0)" xlink:href="#X"/><use transform="matrix(0.048,0,0,0.048,29.76,0)" xlink:href="#bi"/><use transform="matrix(0.048,0,0,0.048,44.112,0)" xlink:href="#Y"/><use transform="matrix(0.048,0,0,0.048,53.712,0)" xlink:href="#aX"/><use transform="matrix(0.048,0,0,0.048,63.312000000000005,0)" xlink:href="#ad"/><use transform="matrix(0.048,0,0,0.048,71.952,0)" xlink:href="#an"/><use transform="matrix(0.048,0,0,0.048,81.55199999999999,0)" xlink:href="#Y"/><use transform="matrix(0.048,0,0,0.048,91.15199999999999,0)" xlink:href="#al"/><use transform="matrix(0.048,0,0,0.048,102.67199999999998,0)" xlink:href="#aa"/><use transform="matrix(0.048,0,0,0.048,115.10399999999998,0)" xlink:href="#bf"/></g><path d="M84 4C-5 8 30-112 23-190h32v120c0 31 7 50 39 49 72-2 45-101 50-169h31l1 190h-30c-1-10 1-25-2-33-11 22-28 36-60 37" id="bj"/><path d="M210-169c-67 3-38 105-44 169h-31v-121c0-29-5-50-35-48C34-165 62-65 56 0H25l-1-190h30c1 10-1 24 2 32 10-44 99-50 107 0 11-21 27-35 58-36 85-2 47 119 55 194h-31v-121c0-29-5-49-35-48" id="bk"/><g id="I"><use transform="matrix(0.05,0,0,0.05,0,0)" xlink:href="#M"/><use transform="matrix(0.05,0,0,0.05,10,0)" xlink:href="#O"/><use transform="matrix(0.05,0,0,0.05,19,0)" xlink:href="#O"/><use transform="matrix(0.05,0,0,0.05,28,0)" xlink:href="#bj"/><use transform="matrix(0.05,0,0,0.05,38,0)" xlink:href="#Q"/><use transform="matrix(0.05,0,0,0.05,48,0)" xlink:href="#aq"/><use transform="matrix(0.05,0,0,0.05,58,0)" xlink:href="#R"/><use transform="matrix(0.05,0,0,0.05,63,0)" xlink:href="#aW"/><use transform="matrix(0.05,0,0,0.05,66.95,0)" xlink:href="#M"/><use transform="matrix(0.05,0,0,0.05,76.95,0)" xlink:href="#N"/><use transform="matrix(0.05,0,0,0.05,86.95,0)" xlink:href="#ag"/><use transform="matrix(0.05,0,0,0.05,92.9,0)" xlink:href="#N"/><use transform="matrix(0.05,0,0,0.05,102.9,0)" xlink:href="#aq"/><use transform="matrix(0.05,0,0,0.05,112.9,0)" xlink:href="#bk"/><use transform="matrix(0.05,0,0,0.05,127.85000000000001,0)" xlink:href="#P"/></g><path d="M24 0v-248h52v208h133V0H24" id="bl"/><path d="M35-132v-50h50v50H35zM35 0v-49h50V0H35" id="bm"/><g id="J"><use transform="matrix(0.05,0,0,0.05,0,0)" xlink:href="#bl"/><use transform="matrix(0.05,0,0,0.05,10.950000000000001,0)" xlink:href="#aF"/><use transform="matrix(0.05,0,0,0.05,20.950000000000003,0)" xlink:href="#aA"/><use transform="matrix(0.05,0,0,0.05,31.900000000000006,0)" xlink:href="#av"/><use transform="matrix(0.05,0,0,0.05,41.900000000000006,0)" xlink:href="#aJ"/><use transform="matrix(0.05,0,0,0.05,46.900000000000006,0)" xlink:href="#bm"/></g><g id="K"><use transform="matrix(0.05,0,0,0.05,0,0)" xlink:href="#aP"/><use transform="matrix(0.05,0,0,0.05,12.950000000000001,0)" xlink:href="#av"/><use transform="matrix(0.05,0,0,0.05,22.950000000000003,0)" xlink:href="#aJ"/><use transform="matrix(0.05,0,0,0.05,27.950000000000003,0)" xlink:href="#aS"/><use transform="matrix(0.05,0,0,0.05,37.95,0)" xlink:href="#aC"/><use transform="matrix(0.05,0,0,0.05,48.900000000000006,0)" xlink:href="#aC"/><use transform="matrix(0.05,0,0,0.05,59.85,0)" xlink:href="#aw"/><use transform="matrix(0.05,0,0,0.05,70.80000000000001,0)" xlink:href="#ax"/><use transform="matrix(0.05,0,0,0.05,75.80000000000001,0)" xlink:href="#aw"/><use transform="matrix(0.05,0,0,0.05,86.75000000000001,0)" xlink:href="#aC"/><use transform="matrix(0.05,0,0,0.05,97.70000000000002,0)" xlink:href="#aE"/><use transform="matrix(0.05,0,0,0.05,107.7,0)" xlink:href="#aF"/><use transform="matrix(0.05,0,0,0.05,117.7,0)" xlink:href="#at"/><use transform="matrix(0.05,0,0,0.05,124.7,0)" xlink:href="#aA"/><use transform="matrix(0.05,0,0,0.05,135.65,0)" xlink:href="#av"/><use transform="matrix(0.05,0,0,0.05,145.65,0)" xlink:href="#aH"/><use transform="matrix(0.05,0,0,0.05,151.6,0)" xlink:href="#aF"/><use transform="matrix(0.05,0,0,0.05,161.6,0)" xlink:href="#at"/><use transform="matrix(0.05,0,0,0.05,168.6,0)" xlink:href="#av"/></g></defs></g></svg>
