<svg xmlns="http://www.w3.org/2000/svg" xmlns:xlink="http://www.w3.org/1999/xlink" xmlns:lucid="lucid" width="976.52" height="858.83"><g transform="translate(-237.3934683970566 -163.11701390386793)" lucid:page-tab-id="0_0"><path d="M0 0h1760v1360H0z" fill="#fff"/><path d="M455.62 183.12c5.7 0 10.34 4.63 10.34 10.34v82.75c0 5.72-4.63 10.35-10.34 10.35H267.74c-5.72 0-10.35-4.63-10.35-10.34v-82.74c0-5.7 4.62-10.34 10.34-10.34z" stroke="#000" stroke-width="2" fill="#5abaa7"/><use xlink:href="#a" transform="matrix(1,0,0,1,277.3934683970566,183.11701390386793) translate(11.199999999999989 55.6)"/><use xlink:href="#b" transform="matrix(1,0,0,1,277.3934683970566,183.11701390386793) translate(115.9 55.6)"/><path d="M824.74 183.12c5.7 0 10.34 4.63 10.34 10.34v82.75c0 5.72-4.63 10.35-10.34 10.35h-187.9c-5.7 0-10.33-4.63-10.33-10.34v-82.74c0-5.7 4.64-10.34 10.35-10.34z" stroke="#000" stroke-width="2" fill="#5abaa7"/><use xlink:href="#c" transform="matrix(1,0,0,1,646.5098930414044,183.11701390386793) translate(30.025 55.6)"/><use xlink:href="#d" transform="matrix(1,0,0,1,646.5098930414044,183.11701390386793) translate(83.975 55.6)"/><use xlink:href="#e" transform="matrix(1,0,0,1,646.5098930414044,183.11701390386793) translate(128.975 55.6)"/><path d="M824.74 361.97c5.7 0 10.34 4.63 10.34 10.34v82.76c0 5.7-4.63 10.34-10.34 10.34h-187.9c-5.7 0-10.33-4.63-10.33-10.34V372.3c0-5.7 4.64-10.33 10.35-10.33z" stroke="#000" stroke-width="2" fill="#5abaa7"/><use xlink:href="#c" transform="matrix(1,0,0,1,646.5098930414044,361.9664122073074) translate(30.025 55.6)"/><use xlink:href="#d" transform="matrix(1,0,0,1,646.5098930414044,361.9664122073074) translate(83.975 55.6)"/><use xlink:href="#f" transform="matrix(1,0,0,1,646.5098930414044,361.9664122073074) translate(128.975 55.6)"/><path d="M824.74 540.82c5.7 0 10.34 4.63 10.34 10.34v82.75c0 5.72-4.63 10.35-10.34 10.35h-187.9c-5.7 0-10.33-4.63-10.33-10.34v-82.74c0-5.7 4.64-10.34 10.35-10.34z" stroke="#000" stroke-width="2" fill="#5abaa7"/><use xlink:href="#c" transform="matrix(1,0,0,1,646.5098930414044,540.8158105107469) translate(30.025 55.6)"/><use xlink:href="#d" transform="matrix(1,0,0,1,646.5098930414044,540.8158105107469) translate(83.975 55.6)"/><use xlink:href="#g" transform="matrix(1,0,0,1,646.5098930414044,540.8158105107469) translate(128.975 55.6)"/><path d="M824.74 719.67c5.7 0 10.34 4.63 10.34 10.34v82.76c0 5.7-4.63 10.34-10.34 10.34h-187.9c-5.7 0-10.33-4.63-10.33-10.34V730c0-5.7 4.64-10.33 10.35-10.33z" stroke="#000" stroke-width="2" fill="#5abaa7"/><use xlink:href="#c" transform="matrix(1,0,0,1,646.5098930414044,719.6652088141865) translate(30.025 55.6)"/><use xlink:href="#d" transform="matrix(1,0,0,1,646.5098930414044,719.6652088141865) translate(83.975 55.6)"/><use xlink:href="#h" transform="matrix(1,0,0,1,646.5098930414044,719.6652088141865) translate(128.975 55.6)"/><path d="M730.8 289.05v71" stroke="#000" stroke-width="3" fill="none"/><path d="M732.3 289.1h-3v-1.55h3z"/><path d="M730.8 360v1.55M730.8 467.9v71" stroke="#000" stroke-width="3" fill="none"/><path d="M732.3 467.94h-3v-1.54h3z"/><path d="M730.8 538.86v1.54M730.8 646.75v71" stroke="#000" stroke-width="3" fill="none"/><path d="M732.3 646.8h-3v-1.55h3z"/><path d="M730.8 717.7v1.55M624 771.32l-.67-.07-.72-.1-.7-.15-.74-.17-.73-.2-.74-.25-.77-.28-.77-.32-.78-.37-.8-.4-.85-.5-.87-.55-.9-.63-.95-.7-.98-.84-1.05-.94-1.1-1.1-1.2-1.26-1.27-1.48-1.38-1.74-1.5-2.07-1.66-2.5-1.83-3.03-2.05-3.73-2.3-4.68-2.68-6-3.1-7.9-3.73-10.7-4.57-15.24-5.9-23.17-8.4-39.95-52.52-314.33-5.9-23.18-4.58-15.24-3.72-10.7-3.1-7.9-2.67-6-2.3-4.68-2.06-3.73-1.83-3.03-1.64-2.5-1.5-2.06-1.38-1.75-1.28-1.47-1.2-1.26-1.1-1.1-1.05-.94-1-.82-.93-.7-.9-.64-.87-.55-.84-.47-.8-.42-.8-.36-.76-.33-.75-.27-.75-.24-.74-.2-.7-.18-.73-.14-.72-.1-.7-.08" stroke="#000" stroke-width="3" fill="none"/><path d="M625.5 769.88v3l-1.56-.03.06-3zM468.5 233.33v3h-1.54v-3z"/><path d="M1183.57 719.67c5.7 0 10.34 4.63 10.34 10.34v82.76c0 5.7-4.62 10.34-10.33 10.34H995.7c-5.73 0-10.36-4.63-10.36-10.34V730c0-5.7 4.63-10.33 10.35-10.33z" stroke="#000" stroke-width="2" fill="#5abaa7"/><use xlink:href="#i" transform="matrix(1,0,0,1,1005.3416135592163,719.6652088141865) translate(32.525 55.6)"/><use xlink:href="#d" transform="matrix(1,0,0,1,1005.3416135592163,719.6652088141865) translate(81.475 55.6)"/><use xlink:href="#h" transform="matrix(1,0,0,1,1005.3416135592163,719.6652088141865) translate(126.475 55.6)"/><path d="M837.58 771.38h71" stroke="#000" stroke-width="3" fill="none"/><path d="M837.62 772.88h-1.54v-3h1.54z"/><path d="M908.54 771.38h1.54M982.84 771.38h-71" stroke="#000" stroke-width="3" fill="none"/><path d="M984.34 772.88h-1.54v-3h1.54z"/><path d="M911.88 771.38h-1.54" stroke="#000" stroke-width="3" fill="none"/><path d="M824.74 898.5c5.7 0 10.34 4.65 10.34 10.36v82.75c0 5.72-4.63 10.35-10.34 10.35h-187.9c-5.7 0-10.33-4.63-10.33-10.34v-82.74c0-5.7 4.64-10.35 10.35-10.35z" stroke="#000" stroke-width="2" fill="#5abaa7"/><use xlink:href="#j" transform="matrix(1,0,0,1,646.5098930414044,898.514607117626) translate(8.149999999999991 55.6)"/><use xlink:href="#k" transform="matrix(1,0,0,1,646.5098930414044,898.514607117626) translate(111.9 55.6)"/><path d="M730.8 896v-71" stroke="#000" stroke-width="3" fill="none"/><path d="M732.3 897.5h-3V896h3z"/><path d="M730.8 825.05v-1.54M624 950.14h-.13l-.55-.1-.55-.1-.55-.13-.56-.14-.57-.2-.6-.2-.6-.25-.6-.28-.62-.33-.66-.4-.67-.42-.7-.5-.76-.56-.8-.64-.82-.75-.9-.87-.94-1-1.02-1.2-1.1-1.4-1.23-1.7-1.36-2.02-1.5-2.47-1.68-3.07-1.92-3.88-2.2-4.98-2.6-6.58-3.1-8.96-3.83-12.7-4.85-19.06-6.53-31.03-9.82-59.06-56.75-444.28-6.53-31.03-4.85-19.05-3.82-12.7-3.1-8.97-2.6-6.57-2.22-5-1.92-3.86-1.67-3.07-1.5-2.48-1.34-2.03-1.23-1.68-1.12-1.4-1.02-1.2-.95-1-.9-.88-.82-.75-.78-.66-.74-.56-.7-.5-.7-.43-.64-.37-.63-.33-.6-.3-.6-.24-.58-.2-.58-.2-.56-.15-.56-.13-.55-.1-.54-.08-.14-.02" stroke="#000" stroke-width="3" fill="none"/><path d="M625.5 948.73v3l-1.56-.03.06-3zM468.5 233.33v3h-1.54v-3z"/><path d="M1089.43 825.58l-.05.17-.08.24-.1.24-.1.26-.12.26-.15.27-.16.28-.18.3-.23.3-.24.33-.28.34-.33.36-.37.4-.44.4-.5.45-.62.48-.73.53-.9.58-1.07.65-1.34.74-1.7.84-2.2.98-2.88 1.14-3.94 1.37-5.6 1.67-8.4 2.14-13.6 2.87-25.36 4.22-77.48 9.3-137.62 15.52-25.35 4.22-13.6 2.86-8.4 2.14-5.6 1.7-3.94 1.35-2.9 1.14-2.18.97-1.7.85-1.34.73-1.08.66-.9.58-.72.53-.6.5-.53.43-.43.42-.37.38-.33.36-.28.34-.25.32-.2.3-.2.3-.16.28-.15.27-.13.26-.1.27-.1.25-.08.24-.05.17" stroke="#000" stroke-width="3" fill="none"/><path d="M1091.1 825.67l-3-.06.03-1.5h3zM732.3 895.98v1.53h-3V896z"/><path d="M837.58 950.23h145.26" stroke="#000" stroke-width="3" fill="none"/><path d="M837.62 951.73h-1.54v-3h1.54zM984.34 951.73h-1.54v-3h1.54z"/><path d="M1183.57 898.5c5.7 0 10.34 4.65 10.34 10.36v82.75c0 5.72-4.62 10.35-10.33 10.35H995.7c-5.73 0-10.36-4.63-10.36-10.34v-82.74c0-5.7 4.63-10.35 10.35-10.35z" stroke="#000" stroke-width="2" fill="#5abaa7"/><g><use xlink:href="#l" transform="matrix(1,0,0,1,1005.3416135592163,898.514607117626) translate(35.12499999999999 44.8)"/><use xlink:href="#m" transform="matrix(1,0,0,1,1005.3416135592163,898.514607117626) translate(41.12499999999999 66.4)"/></g><path d="M455.62 898.5c5.7 0 10.34 4.65 10.34 10.36v82.75c0 5.72-4.63 10.35-10.34 10.35H267.74c-5.72 0-10.35-4.63-10.35-10.34v-82.74c0-5.7 4.62-10.35 10.34-10.35z" stroke="#000" stroke-width="2" fill="#5abaa7"/><g><use xlink:href="#n" transform="matrix(1,0,0,1,277.3934683970566,898.514607117626) translate(46.574999999999996 55.6)"/></g><path d="M468.46 950.23H624" stroke="#000" stroke-width="3" fill="none"/><path d="M468.5 951.73h-1.54v-3h1.54zM625.5 951.73h-1.53v-3h1.54z"/><defs><path d="M140-251c80 0 125 45 125 126S219 4 139 4C58 4 15-44 15-125s44-126 125-126zm-1 214c52 0 73-35 73-88 0-50-21-86-72-86-52 0-73 35-73 86s22 88 72 88" id="o"/><path d="M190-63c-7 42-38 67-86 67-59 0-84-38-90-98-12-110 154-137 174-36l-49 2c-2-19-15-32-35-32-30 0-35 28-38 64-6 74 65 87 74 30" id="p"/><path d="M85 4C-2 5 27-109 22-190h50c7 57-23 150 33 157 60-5 35-97 40-157h50l1 190h-47c-2-12 1-28-3-38-12 25-28 42-61 42" id="q"/><path d="M135-194c53 0 70 44 70 98 0 56-19 98-73 100-31 1-45-17-59-34 3 33 2 69 2 105H25l-1-265h48c2 10 0 23 3 31 11-24 29-35 60-35zM114-30c33 0 39-31 40-66 0-38-9-64-40-64-56 0-55 130 0 130" id="r"/><path d="M133-34C117-15 103 5 69 4 32 3 11-16 11-54c-1-60 55-63 116-61 1-26-3-47-28-47-18 1-26 9-28 27l-52-2c7-38 36-58 82-57s74 22 75 68l1 82c-1 14 12 18 25 15v27c-30 8-71 5-69-32zm-48 3c29 0 43-24 42-57-32 0-66-3-65 30 0 17 8 27 23 27" id="s"/><path d="M115-3C79 11 28 4 28-45v-112H4v-33h27l15-45h31v45h36v33H77v99c-1 23 16 31 38 25v30" id="t"/><path d="M25-224v-37h50v37H25zM25 0v-190h50V0H25" id="u"/><path d="M110-194c64 0 96 36 96 99 0 64-35 99-97 99-61 0-95-36-95-99 0-62 34-99 96-99zm-1 164c35 0 45-28 45-65 0-40-10-65-43-65-34 0-45 26-45 65 0 36 10 65 43 65" id="v"/><path d="M135-194c87-1 58 113 63 194h-50c-7-57 23-157-34-157-59 0-34 97-39 157H25l-1-190h47c2 12-1 28 3 38 12-26 28-41 61-42" id="w"/><g id="a"><use transform="matrix(0.05,0,0,0.05,0,0)" xlink:href="#o"/><use transform="matrix(0.05,0,0,0.05,14,0)" xlink:href="#p"/><use transform="matrix(0.05,0,0,0.05,24,0)" xlink:href="#q"/><use transform="matrix(0.05,0,0,0.05,34.95,0)" xlink:href="#r"/><use transform="matrix(0.05,0,0,0.05,45.900000000000006,0)" xlink:href="#r"/><use transform="matrix(0.05,0,0,0.05,56.85,0)" xlink:href="#s"/><use transform="matrix(0.05,0,0,0.05,66.85000000000001,0)" xlink:href="#t"/><use transform="matrix(0.05,0,0,0.05,72.80000000000001,0)" xlink:href="#u"/><use transform="matrix(0.05,0,0,0.05,77.80000000000001,0)" xlink:href="#v"/><use transform="matrix(0.05,0,0,0.05,88.75000000000001,0)" xlink:href="#w"/></g><path d="M76-208v77h127v40H76V0H24v-248h183v40H76" id="x"/><path d="M185-48c-13 30-37 53-82 52C43 2 14-33 14-96s30-98 90-98c62 0 83 45 84 108H66c0 31 8 55 39 56 18 0 30-7 34-22zm-45-69c5-46-57-63-70-21-2 6-4 13-4 21h74" id="y"/><path d="M25 0v-261h50V0H25" id="z"/><path d="M88-194c31-1 46 15 58 34l-1-101h50l1 261h-48c-2-10 0-23-3-31C134-8 116 4 84 4 32 4 16-41 15-95c0-56 19-97 73-99zm17 164c33 0 40-30 41-66 1-37-9-64-41-64s-38 30-39 65c0 43 13 65 39 65" id="A"/><g id="b"><use transform="matrix(0.05,0,0,0.05,0,0)" xlink:href="#x"/><use transform="matrix(0.05,0,0,0.05,10.950000000000001,0)" xlink:href="#u"/><use transform="matrix(0.05,0,0,0.05,15.950000000000001,0)" xlink:href="#y"/><use transform="matrix(0.05,0,0,0.05,25.950000000000003,0)" xlink:href="#z"/><use transform="matrix(0.05,0,0,0.05,30.950000000000003,0)" xlink:href="#A"/></g><path d="M169-182c-1-43-94-46-97-3 18 66 151 10 154 114 3 95-165 93-204 36-6-8-10-19-12-30l50-8c3 46 112 56 116 5-17-69-150-10-154-114-4-87 153-88 188-35 5 8 8 18 10 28" id="B"/><path d="M146-102V0H94v-102L6-248h54l60 105 60-105h54" id="C"/><path d="M195 0l-88-114-31 24V0H24v-248h52v113l112-113h60L142-143 257 0h-62" id="D"/><g id="c"><use transform="matrix(0.05,0,0,0.05,0,0)" xlink:href="#B"/><use transform="matrix(0.05,0,0,0.05,12,0)" xlink:href="#B"/><use transform="matrix(0.05,0,0,0.05,24,0)" xlink:href="#C"/><use transform="matrix(0.05,0,0,0.05,36,0)" xlink:href="#D"/></g><path d="M128 0H69L1-190h53L99-40l48-150h52" id="E"/><g id="d"><use transform="matrix(0.05,0,0,0.05,0,0)" xlink:href="#z"/><use transform="matrix(0.05,0,0,0.05,5,0)" xlink:href="#y"/><use transform="matrix(0.05,0,0,0.05,15,0)" xlink:href="#E"/><use transform="matrix(0.05,0,0,0.05,25,0)" xlink:href="#y"/><use transform="matrix(0.05,0,0,0.05,35,0)" xlink:href="#z"/></g><path d="M23 0v-37h61v-169l-59 37v-38l62-41h46v211h57V0H23" id="F"/><use transform="matrix(0.05,0,0,0.05,0,0)" xlink:href="#F" id="e"/><path d="M182-182c0 78-84 86-111 141h115V0H12c-6-101 99-100 120-180 1-22-12-31-33-32-23 0-32 14-35 34l-49-3c5-45 32-70 84-70 51 0 83 22 83 69" id="G"/><use transform="matrix(0.05,0,0,0.05,0,0)" xlink:href="#G" id="f"/><path d="M128-127c34 4 56 21 59 58 7 91-148 94-172 28-4-9-6-17-7-26l51-5c1 24 16 35 40 36 23 0 39-12 38-36-1-31-31-36-65-34v-40c32 2 59-3 59-33 0-20-13-33-34-33s-33 13-35 32l-50-3c6-44 37-68 86-68 50 0 83 20 83 66 0 35-22 52-53 58" id="H"/><use transform="matrix(0.05,0,0,0.05,0,0)" xlink:href="#H" id="g"/><path d="M165-50V0h-47v-50H5v-38l105-160h55v161h33v37h-33zm-47-37l2-116L46-87h72" id="I"/><use transform="matrix(0.05,0,0,0.05,0,0)" xlink:href="#I" id="h"/><path d="M24 0v-248h52V0H24" id="J"/><path d="M67-125c0 53 21 87 73 88 37 1 54-22 65-47l45 17C233-25 199 4 140 4 58 4 20-42 15-125 8-235 124-281 211-232c18 10 29 29 36 50l-46 12c-8-25-30-41-62-41-52 0-71 34-72 86" id="K"/><g id="i"><use transform="matrix(0.05,0,0,0.05,0,0)" xlink:href="#J"/><use transform="matrix(0.05,0,0,0.05,5,0)" xlink:href="#B"/><use transform="matrix(0.05,0,0,0.05,17,0)" xlink:href="#K"/><use transform="matrix(0.05,0,0,0.05,29.950000000000003,0)" xlink:href="#o"/></g><g id="j"><use transform="matrix(0.05,0,0,0.05,0,0)" xlink:href="#o"/><use transform="matrix(0.05,0,0,0.05,14,0)" xlink:href="#p"/><use transform="matrix(0.05,0,0,0.05,24,0)" xlink:href="#p"/><use transform="matrix(0.05,0,0,0.05,34,0)" xlink:href="#q"/><use transform="matrix(0.05,0,0,0.05,44.95,0)" xlink:href="#r"/><use transform="matrix(0.05,0,0,0.05,55.900000000000006,0)" xlink:href="#s"/><use transform="matrix(0.05,0,0,0.05,65.9,0)" xlink:href="#t"/><use transform="matrix(0.05,0,0,0.05,71.85000000000001,0)" xlink:href="#u"/><use transform="matrix(0.05,0,0,0.05,76.85000000000001,0)" xlink:href="#v"/><use transform="matrix(0.05,0,0,0.05,87.80000000000001,0)" xlink:href="#w"/></g><path d="M175 0L67-191c6 58 2 128 3 191H24v-248h59L193-55c-6-58-2-129-3-193h46V0h-61" id="L"/><path d="M220-157c-53 9-28 100-34 157h-49v-107c1-27-5-49-29-50C55-147 81-57 75 0H25l-1-190h47c2 12-1 28 3 38 10-53 101-56 108 0 13-22 24-43 59-42 82 1 51 116 57 194h-49v-107c-1-25-5-48-29-50" id="M"/><g id="k"><use transform="matrix(0.05,0,0,0.05,0,0)" xlink:href="#L"/><use transform="matrix(0.05,0,0,0.05,12.950000000000001,0)" xlink:href="#s"/><use transform="matrix(0.05,0,0,0.05,22.950000000000003,0)" xlink:href="#M"/><use transform="matrix(0.05,0,0,0.05,38.95,0)" xlink:href="#y"/></g><g id="l"><use transform="matrix(0.05,0,0,0.05,0,0)" xlink:href="#o"/><use transform="matrix(0.05,0,0,0.05,14,0)" xlink:href="#p"/><use transform="matrix(0.05,0,0,0.05,24,0)" xlink:href="#p"/><use transform="matrix(0.05,0,0,0.05,34,0)" xlink:href="#q"/><use transform="matrix(0.05,0,0,0.05,44.95,0)" xlink:href="#r"/><use transform="matrix(0.05,0,0,0.05,55.900000000000006,0)" xlink:href="#s"/><use transform="matrix(0.05,0,0,0.05,65.9,0)" xlink:href="#t"/><use transform="matrix(0.05,0,0,0.05,71.85000000000001,0)" xlink:href="#u"/><use transform="matrix(0.05,0,0,0.05,76.85000000000001,0)" xlink:href="#v"/><use transform="matrix(0.05,0,0,0.05,87.80000000000001,0)" xlink:href="#w"/></g><g id="m"><use transform="matrix(0.05,0,0,0.05,0,0)" xlink:href="#K"/><use transform="matrix(0.05,0,0,0.05,12.950000000000001,0)" xlink:href="#v"/><use transform="matrix(0.05,0,0,0.05,23.900000000000002,0)" xlink:href="#z"/><use transform="matrix(0.05,0,0,0.05,28.900000000000002,0)" xlink:href="#z"/><use transform="matrix(0.05,0,0,0.05,33.900000000000006,0)" xlink:href="#y"/><use transform="matrix(0.05,0,0,0.05,43.900000000000006,0)" xlink:href="#p"/><use transform="matrix(0.05,0,0,0.05,53.900000000000006,0)" xlink:href="#t"/><use transform="matrix(0.05,0,0,0.05,59.85,0)" xlink:href="#u"/><use transform="matrix(0.05,0,0,0.05,64.85000000000001,0)" xlink:href="#v"/><use transform="matrix(0.05,0,0,0.05,75.80000000000001,0)" xlink:href="#w"/></g><path d="M123 10C108 53 80 86 19 72V37c35 8 53-11 59-39L3-190h52l48 148c12-52 28-100 44-148h51" id="N"/><path d="M231 0h-52l-39-155L100 0H48L-1-190h46L77-45c9-52 24-97 36-145h53l37 145 32-145h46" id="O"/><path d="M135-150c-39-12-60 13-60 57V0H25l-1-190h47c2 13-1 29 3 40 6-28 27-53 61-41v41" id="P"/><g id="n"><use transform="matrix(0.05,0,0,0.05,0,0)" xlink:href="#D"/><use transform="matrix(0.05,0,0,0.05,12.950000000000001,0)" xlink:href="#y"/><use transform="matrix(0.05,0,0,0.05,22.950000000000003,0)" xlink:href="#N"/><use transform="matrix(0.05,0,0,0.05,32.95,0)" xlink:href="#O"/><use transform="matrix(0.05,0,0,0.05,46.95,0)" xlink:href="#v"/><use transform="matrix(0.05,0,0,0.05,57.900000000000006,0)" xlink:href="#P"/><use transform="matrix(0.05,0,0,0.05,64.9,0)" xlink:href="#A"/></g></defs></g></svg>